# xmcd
#
# Track frame offsets: 
#        150
#        20209
#        52501
#        90251
#        109706
#        141571
#        163961
#        190795
#        210204
#        235919
#        264699
#        281251
#
# Disc length: 4030 seconds
#
# Revision: 4
# Processed by: cddbd v1.5.2PL0 Copyright (c) Steve Scherf et al.
# Submitted via: ExactAudioCopy v1.0b3
#
DISCID=9f0fbc0c
DTITLE=Thai Thanh - Que Huong va Ky Niem
DYEAR=1990
DGENRE=
TTITLE0=Ky vat cho em
TTITLE1=Doi mat nguoi Son Tay
TTITLE2=Tinh ca
TTITLE3=Con me chieu
TTITLE4=Ba me Gio Linh
TTITLE5=Nguoi ve
TTITLE6=Ky niem
TTITLE7=Paris co gi la khong em
TTITLE8=Nuoc mat roi
TTITLE9=Tro ve di vang
TTITLE10=Tinh cam
TTITLE11=Dong song xanh
EXTD=
EXTT0=
EXTT1=
EXTT2=
EXTT3=
EXTT4=
EXTT5=
EXTT6=
EXTT7=
EXTT8=
EXTT9=
EXTT10=
EXTT11=
PLAYORDER=
